inDegrees=yes
name=IK-live
DataType=double
version=3
OpenSimVersion=4.1
endheader
time	pelvis_tilt	pelvis_list	pelvis_rotation	pelvis_tx	pelvis_ty	pelvis_tz	hip_flexion_r	hip_adduction_r	hip_rotation_r	knee_angle_r	ankle_angle_r	subtalar_angle_r	mtp_angle_r	hip_flexion_l	hip_adduction_l	hip_rotation_l	knee_angle_l	ankle_angle_l	subtalar_angle_l	mtp_angle_l	lumbar_extension	lumbar_bending	lumbar_rotation	neck_flex	neck_latbend	neck_rot	arm_flex_r	arm_add_r	arm_rot_r	elbow_flex_r	pro_sup_r	wrist_flex_r	wrist_dev_r	arm_flex_l	arm_add_l	arm_rot_l	elbow_flex_l	pro_sup_l	wrist_flex_l	wrist_dev_l
25.2516889	28.42329711361481	-15.53846865307716	-9.875388940827088	0.2341366603171506	0.04326292228651554	-1.326684523481465	-22.57117169827992	-1.591976316804377	-3.241458145969817	5.899560354604904	2.451982624139334	1.987972377786656	0	-24.74788768789517	-3.395140484746916	-11.58000132048591	9.793848132074926	-0.4439473045988533	4.250290820099795	0	-21.37711699760957	1.659277491615732	3.206407148933037	0	0	0	0.7856607117696559	-15.17647865457283	33.30430939441526	7.102907056624198	24.89230850119703	0	0.02067468389495261	5.876148819631204	-13.23003158443509	43.88832656681571	6.920091951232386	33.48903811029072	0	0.02067468389495261
25.412726	24.55800738480769	-14.22166115971116	4.22743461574194	0.2341366603171506	0.04326292228651554	-1.326684523481465	-22.57117169827992	-1.591976316804377	-3.241458145969817	5.899560354604904	2.451982624139334	1.987972377786656	0	-24.74788768789517	-3.395140484746916	-11.58000132048591	9.793848132074926	-0.4439473045988533	4.250290820099795	0	-21.37711699760957	1.659277491615732	3.206407148933037	0	0	0	0.785409815278205	-15.17647974587194	33.30463035984536	7.0992052178444	24.89151100268304	0	0.02031589174619097	5.875920249319814	-13.23002063642955	43.8888027539126	6.916311574482262	33.48864229930639	0	0.02031589174619097
25.5645836	24.5127581013712	-13.31575908954649	12.35682828353874	0.2341366603171506	0.04326292228651554	-1.326684523481465	-22.57117169827992	-1.591976316804377	-3.241458145969817	5.899560354604904	2.451982624139334	1.987972377786656	0	-24.74788768789517	-3.395140484746916	-11.58000132048591	9.793848132074926	-0.4439473045988533	4.250290820099795	0	-21.37711699760957	1.659277491615732	3.206407148933037	0	0	0	0.7854045600966187	-15.17647976677425	33.30463569091048	7.099293183873344	24.89150559449516	0	0.02031488878996488	5.875915410408964	-13.23002042675911	43.88881008232184	6.916406508487856	33.48863861427927	0	0.02031488878996488
25.7264073	29.52849256740996	-12.83712006409401	12.85573331572103	0.2341366603171506	0.04326292228651554	-1.326684523481465	-22.57117169827992	-1.591976316804377	-3.241458145969817	5.899560354604904	2.451982624139334	1.987972377786656	0	-24.74788768789517	-3.395140484746916	-11.58000132048591	9.793848132074926	-0.4439473045988533	4.250290820099795	0	-21.37711699760957	1.659277491615732	3.206407148933037	0	0	0	0.7862148248821089	-15.17647621839479	33.30358185820032	7.11347624487832	24.89422494967378	0	0.0215570317580862	5.876652943397109	-13.23005602469493	43.88723925297965	6.930963142717887	33.48997513448744	0	0.0215570317580862
25.8863844	28.33057555714798	-16.25427222221951	11.55200193483755	0.2341366603171506	0.04326292228651554	-1.326684523481465	-22.57117169827992	-1.591976316804377	-3.241458145969817	5.899560354604904	2.451982624139334	1.987972377786656	0	-24.74788768789517	-3.395140484746916	-11.58000132048591	9.793848132074926	-0.4439473045988533	4.250290820099795	0	-21.37711699760957	1.659277491615732	3.206407148933037	0	0	0	0.7859606138809758	-15.17647732998921	33.30391126345922	7.109170577456672	24.89338247082624	0	0.02117360534187203	5.876421509373663	-13.23004487301405	43.88772973155233	6.926546676381721	33.48956014075686	0	0.02117360534187203
26.0393513	2.85503273503158	-27.51832190544859	16.80985791738056	0.2341366603171506	0.04326292228651554	-1.326684523481465	-22.57117169827992	-1.591976316804377	-3.241458145969817	5.899560354604904	2.451982624139334	1.987972377786656	0	-24.74788768789517	-3.395140484746916	-11.58000132048591	9.793848132074926	-0.4439473045988533	4.250290820099795	0	-21.37711699760957	1.659277491615732	3.206407148933037	0	0	0	0.7844792021218672	-15.17648379693986	33.30582315661478	7.085097655121384	24.88853610053136	0	0.01897593422974653	5.875072545357268	-13.22997999573039	43.89057333335595	6.901888071793559	33.48716744723134	0	0.01897593422974653
26.1991014	-16.5422026774953	-40.16039485707134	25.93161247629488	0.2341366603171506	0.04326292228651554	-1.326684523481465	-22.57117169827992	-1.591976316804377	-3.241458145969817	5.899560354604904	2.451982624139334	1.987972377786656	0	-24.74788768789517	-3.395140484746916	-11.58000132048591	9.793848132074926	-0.4439473045988533	4.250290820099795	0	-21.37711699760957	1.659277491615732	3.206407148933037	0	0	0	0.784436716082593	-15.17648396382433	33.30586474539062	7.085848796522211	24.88850609895253	0	0.01897642199365341	5.875033381909295	-13.22997832174352	43.89062971348174	6.902690745258172	33.48714344217387	0	0.01897642199365341
26.3520044	-29.94367692626437	-49.4588047475466	28.54361952385393	0.2341366603171506	0.04326292228651554	-1.326684523481465	-22.57117169827992	-1.591976316804377	-3.241458145969817	5.899560354604904	2.451982624139334	1.987972377786656	0	-24.74788768789517	-3.395140484746916	-11.58000132048591	9.793848132074926	-0.4439473045988533	4.250290820099795	0	-21.37711699760957	1.659277491615732	3.206407148933037	0	0	0	0.7855316650440164	-15.17647915473632	33.30443053160214	7.106366352831135	24.89226697270437	0	0.02070534135446837	5.876029682009459	-13.23002656748656	43.88848760495316	6.923786330069877	33.48898428851267	0	0.02070534135446837
26.5140134	-30.35015616632749	-40.09126693130376	5.601077434641983	0.2341366603171506	0.04326292228651554	-1.326684523481465	-22.57117169827992	-1.591976316804377	-3.241458145969817	5.899560354604904	2.451982624139334	1.987972377786656	0	-24.74788768789517	-3.395140484746916	-11.58000132048591	9.793848132074926	-0.4439473045988533	4.250290820099795	0	-21.37711699760957	1.659277491615732	3.206407148933037	0	0	0	0.7844108819059235	-15.17648407351007	33.30589602360627	7.08558281318353	24.88843535636229	0	0.01894560490363717	5.875009772172847	-13.22997722139714	43.89067549350008	6.902421594491418	33.48710757955438	0	0.01894560490363717
26.6748222	-28.73631554042407	-21.76161830629236	-15.99326463041645	0.2341366603171506	0.04326292228651554	-1.326684523481465	-22.57117169827992	-1.591976316804377	-3.241458145969817	5.899560354604904	2.451982624139334	1.987972377786656	0	-24.74788768789517	-3.395140484746916	-11.58000132048591	9.793848132074926	-0.4439473045988533	4.250290820099795	0	-21.37711699760957	1.659277491615732	3.206407148933037	0	0	0	0.7834826076786745	-15.17648815513212	33.30711544396372	7.067525672956859	24.88521261001938	0	0.01745926668378939	5.874165244862951	-13.22993627368135	43.89249845088167	6.883834311545171	33.48553349493233	0	0.01745926668378939
